HIERARCHY
ROOT hip
{
  OFFSET 0 90.174 2.4664
  CHANNELS 6 Xposition Yposition Zposition Zrotation Xrotation Yrotation
  JOINT abdomen
  {
    OFFSET 0 -1.186 -1.5018
    CHANNELS 6 Xposition Yposition Zposition Zrotation Xrotation Yrotation
    JOINT abdomen2
    {
      OFFSET 0 9.964 0.2134
      CHANNELS 6 Xposition Yposition Zposition Zrotation Xrotation Yrotation
      JOINT chest
      {
        OFFSET 0 13.134 -3.2573
        CHANNELS 6 Xposition Yposition Zposition Zrotation Xrotation Yrotation
        JOINT neck
        {
          OFFSET 0 20.686 -1.6905
          CHANNELS 6 Xposition Yposition Zposition Zrotation Xrotation Yrotation
          JOINT head
          {
            OFFSET 0 7.238 -0.1237
            CHANNELS 6 Xposition Yposition Zposition Zrotation Xrotation Yrotation
            End Site
            {
              OFFSET 0 0 0
            }
          }
        }
        JOINT lCollar
        {
          OFFSET 1.7069 20.075 5.0056
          CHANNELS 6 Xposition Yposition Zposition Zrotation Xrotation Yrotation
          JOINT lShldr
          {
            OFFSET 13.6458 -0.047 -4.849
            CHANNELS 6 Xposition Yposition Zposition Zrotation Xrotation Yrotation
            JOINT lForeArm
            {
              OFFSET 28.3255 -0.9759 2.2888
              CHANNELS 6 Xposition Yposition Zposition Zrotation Xrotation Yrotation
              JOINT lHand
              {
                OFFSET 22.1583 -0.53 10.8316
                CHANNELS 6 Xposition Yposition Zposition Zrotation Xrotation Yrotation
                JOINT lThumb1
                {
                  OFFSET 0.786 0.112 2.5817
                  CHANNELS 6 Xposition Yposition Zposition Zrotation Xrotation Yrotation
                  JOINT lThumb2
                  {
                    OFFSET 0.3601 -0.878 4.2331
                    CHANNELS 6 Xposition Yposition Zposition Zrotation Xrotation Yrotation
                    JOINT lThumb2_End
                    {
                      OFFSET 1.8127 -1.216 2.2227
                      CHANNELS 6 Xposition Yposition Zposition Zrotation Xrotation Yrotation
                      End Site
                      {
                        OFFSET 0.0181 -0.0122 0.0222
                      }
                    }
                  }
                }
                JOINT lCarpal1
                {
                  OFFSET 0.9571 1.114 1.7695
                  CHANNELS 6 Xposition Yposition Zposition Zrotation Xrotation Yrotation
                  JOINT lIndex1
                  {
                    OFFSET 4.1246 0.487 4.1451
                    CHANNELS 6 Xposition Yposition Zposition Zrotation Xrotation Yrotation
                    JOINT lIndex2
                    {
                      OFFSET 3.4052 -1.454 2.7682
                      CHANNELS 6 Xposition Yposition Zposition Zrotation Xrotation Yrotation
                      JOINT lIndex2_End
                      {
                        OFFSET 1.4531 -1.795 1.2713
                        CHANNELS 6 Xposition Yposition Zposition Zrotation Xrotation Yrotation
                        End Site
                        {
                          OFFSET 0.0145 -0.0179 0.0127
                        }
                      }
                    }
                  }
                  JOINT lMid1
                  {
                    OFFSET 5.6954 0.21 2.1184
                    CHANNELS 6 Xposition Yposition Zposition Zrotation Xrotation Yrotation
                    JOINT lMid2
                    {
                      OFFSET 3.9766 -1.54 2.3863
                      CHANNELS 6 Xposition Yposition Zposition Zrotation Xrotation Yrotation
                      JOINT lMid2_End
                      {
                        OFFSET 1.4042 -1.926 1.125
                        CHANNELS 6 Xposition Yposition Zposition Zrotation Xrotation Yrotation
                        End Site
                        {
                          OFFSET 0.014 -0.0193 0.0113
                        }
                      }
                    }
                  }
                }
                JOINT lCarpal2
                {
                  OFFSET 2.0956 0.66 -0.3894
                  CHANNELS 6 Xposition Yposition Zposition Zrotation Xrotation Yrotation
                  JOINT lRing1
                  {
                    OFFSET 5.0395 -0.09 2.4971
                    CHANNELS 6 Xposition Yposition Zposition Zrotation Xrotation Yrotation
                    JOINT lRing2
                    {
                      OFFSET 3.7921 -1.552 1.4806
                      CHANNELS 6 Xposition Yposition Zposition Zrotation Xrotation Yrotation
                      JOINT lRing2_End
                      {
                        OFFSET 1.4655 -1.808 0.9609
                        CHANNELS 6 Xposition Yposition Zposition Zrotation Xrotation Yrotation
                        End Site
                        {
                          OFFSET 0.0147 -0.0181 0.0096
                        }
                      }
                    }
                  }
                  JOINT lPinky1
                  {
                    OFFSET 4.9141 -1.269 0.3591
                    CHANNELS 6 Xposition Yposition Zposition Zrotation Xrotation Yrotation
                    JOINT lPinky2
                    {
                      OFFSET 3.1477 -1.685 0.8462
                      CHANNELS 6 Xposition Yposition Zposition Zrotation Xrotation Yrotation
                      JOINT lPinky2_End
                      {
                        OFFSET 0.8055 -1.585 0.7955
                        CHANNELS 6 Xposition Yposition Zposition Zrotation Xrotation Yrotation
                        End Site
                        {
                          OFFSET 0.0081 -0.0158 0.008
                        }
                      }
                    }
                  }
                }
              }
            }
          }
        }
        JOINT rCollar
        {
          OFFSET -1.7069 20.075 5.0056
          CHANNELS 6 Xposition Yposition Zposition Zrotation Xrotation Yrotation
          JOINT rShldr
          {
            OFFSET -13.6458 -0.047 -4.849
            CHANNELS 6 Xposition Yposition Zposition Zrotation Xrotation Yrotation
            JOINT rForeArm
            {
              OFFSET -28.3255 -0.9759 2.2888
              CHANNELS 6 Xposition Yposition Zposition Zrotation Xrotation Yrotation
              JOINT rHand
              {
                OFFSET -22.1583 -0.53 10.8316
                CHANNELS 6 Xposition Yposition Zposition Zrotation Xrotation Yrotation
                JOINT rThumb1
                {
                  OFFSET -0.786 0.112 2.5817
                  CHANNELS 6 Xposition Yposition Zposition Zrotation Xrotation Yrotation
                  JOINT rThumb2
                  {
                    OFFSET -0.3601 -0.878 4.2331
                    CHANNELS 6 Xposition Yposition Zposition Zrotation Xrotation Yrotation
                    JOINT rThumb2_End
                    {
                      OFFSET -1.8127 -1.216 2.2227
                      CHANNELS 6 Xposition Yposition Zposition Zrotation Xrotation Yrotation
                      End Site
                      {
                        OFFSET -0.0181 -0.0122 0.0222
                      }
                    }
                  }
                }
                JOINT rCarpal1
                {
                  OFFSET -0.9571 1.114 1.7695
                  CHANNELS 6 Xposition Yposition Zposition Zrotation Xrotation Yrotation
                  JOINT rIndex1
                  {
                    OFFSET -4.1246 0.487 4.1451
                    CHANNELS 6 Xposition Yposition Zposition Zrotation Xrotation Yrotation
                    JOINT rIndex2
                    {
                      OFFSET -3.4052 -1.454 2.7682
                      CHANNELS 6 Xposition Yposition Zposition Zrotation Xrotation Yrotation
                      JOINT rIndex2_End
                      {
                        OFFSET -1.4531 -1.795 1.2713
                        CHANNELS 6 Xposition Yposition Zposition Zrotation Xrotation Yrotation
                        End Site
                        {
                          OFFSET -0.0145 -0.018 0.0127
                        }
                      }
                    }
                  }
                  JOINT rMid1
                  {
                    OFFSET -5.6954 0.21 2.1184
                    CHANNELS 6 Xposition Yposition Zposition Zrotation Xrotation Yrotation
                    JOINT rMid2
                    {
                      OFFSET -3.9766 -1.54 2.3863
                      CHANNELS 6 Xposition Yposition Zposition Zrotation Xrotation Yrotation
                      JOINT rMid2_End
                      {
                        OFFSET -1.4042 -1.926 1.125
                        CHANNELS 6 Xposition Yposition Zposition Zrotation Xrotation Yrotation
                        End Site
                        {
                          OFFSET -0.014 -0.0193 0.0113
                        }
                      }
                    }
                  }
                }
                JOINT rCarpal2
                {
                  OFFSET -2.0956 0.66 -0.3894
                  CHANNELS 6 Xposition Yposition Zposition Zrotation Xrotation Yrotation
                  JOINT rRing1
                  {
                    OFFSET -5.0395 -0.09 2.4971
                    CHANNELS 6 Xposition Yposition Zposition Zrotation Xrotation Yrotation
                    JOINT rRing2
                    {
                      OFFSET -3.7921 -1.552 1.4806
                      CHANNELS 6 Xposition Yposition Zposition Zrotation Xrotation Yrotation
                      JOINT rRing2_End
                      {
                        OFFSET -1.4655 -1.808 0.9609
                        CHANNELS 6 Xposition Yposition Zposition Zrotation Xrotation Yrotation
                        End Site
                        {
                          OFFSET -0.0147 -0.0181 0.0096
                        }
                      }
                    }
                  }
                  JOINT rPinky1
                  {
                    OFFSET -4.9141 -1.269 0.3592
                    CHANNELS 6 Xposition Yposition Zposition Zrotation Xrotation Yrotation
                    JOINT rPinky2
                    {
                      OFFSET -3.1477 -1.685 0.8462
                      CHANNELS 6 Xposition Yposition Zposition Zrotation Xrotation Yrotation
                      JOINT rPinky2_End
                      {
                        OFFSET -0.8055 -1.585 0.7955
                        CHANNELS 6 Xposition Yposition Zposition Zrotation Xrotation Yrotation
                        End Site
                        {
                          OFFSET -0.0081 -0.0158 0.008
                        }
                      }
                    }
                  }
                }
              }
            }
          }
        }
      }
    }
  }
  JOINT lThigh
  {
    OFFSET 8.367 -8.2066 0.5982
    CHANNELS 6 Xposition Yposition Zposition Zrotation Xrotation Yrotation
    JOINT lShin
    {
      OFFSET 2.1923 -43.463 -0.4932
      CHANNELS 6 Xposition Yposition Zposition Zrotation Xrotation Yrotation
      JOINT lFoot
      {
        OFFSET 0.7333 -45.8593 -2.6451
        CHANNELS 6 Xposition Yposition Zposition Zrotation Xrotation Yrotation
        End Site
        {
          OFFSET 2.6618 -4.2699 12.3931
        }
      }
    }
  }
  JOINT rThigh
  {
    OFFSET -8.367 -8.2066 0.5982
    CHANNELS 6 Xposition Yposition Zposition Zrotation Xrotation Yrotation
    JOINT rShin
    {
      OFFSET -2.1923 -43.463 -0.4931
      CHANNELS 6 Xposition Yposition Zposition Zrotation Xrotation Yrotation
      JOINT rFoot
      {
        OFFSET -0.7333 -45.8593 -2.6451
        CHANNELS 6 Xposition Yposition Zposition Zrotation Xrotation Yrotation
        End Site
        {
          OFFSET -2.6618 -4.2699 12.3931
        }
      }
    }
  }
}
MOTION
Frames:	4
Frame Time:	0.0333333
0.00643669 -1.16719 -19.33 -180 -89.798 -180 0 -1.186 -1.5018 -0.0504286 5.88982 -0.115924 3.46945e-018 9.964 0.2134 -0.0895186 11.7797 -0.228432 0 13.134 -3.2573 -0.0895185 11.7797 -0.228432 0 20.686 -1.6905 -8.48891 9.53229 1.36852 0 7.238 -0.1237 9.99907 -0.00412215 35.9978 1.7069 20.075 5.0056 -19.9856 -12.5935 -1.07332 13.6458 -0.047 -4.849 -59.7347 4.98129 27.9301 28.3255 -0.9759 2.2888 29.7273 15.2202 -32.3226 22.1583 -0.53 10.8316 0.269502 28.6204 0.747742 0.786 0.112 2.5817 -1.19271e-015 6.36111e-015 9.54166e-015 0.3601 -0.878 4.2331 -4.37326e-015 3.97569e-015 6.36111e-015 1.8127 -1.216 2.2227 -1.59028e-015 5.56597e-015 6.36111e-015 0.9571 1.114 1.7695 1.98785e-015 1.98785e-015 -0 4.1246 0.487 4.1451 1.98785e-015 6.95746e-015 1.59028e-014 3.4052 -1.454 2.7682 -7.15625e-015 0 1.59028e-014 1.4531 -1.795 1.2713 7.95139e-016 2.98177e-015 3.18055e-015 5.6954 0.21 2.1184 1.98785e-015 6.95746e-015 1.59028e-014 3.9766 -1.54 2.3863 -7.15625e-015 0 1.59028e-014 1.4042 -1.926 1.125 7.95139e-016 2.98177e-015 3.18055e-015 2.0956 0.66 -0.3894 1.98785e-015 1.98785e-015 -0 5.0395 -0.09 2.4971 1.98785e-015 6.95746e-015 1.59028e-014 3.7921 -1.552 1.4806 -7.15625e-015 0 1.59028e-014 1.4655 -1.808 0.9609 7.95139e-016 2.98177e-015 3.18055e-015 4.9141 -1.269 0.3591 1.98785e-015 6.95746e-015 1.59028e-014 3.1477 -1.685 0.8462 -7.15625e-015 0 1.59028e-014 0.8055 -1.585 0.7955 7.95139e-016 2.98177e-015 3.18055e-015 -1.7069 20.075 5.0056 19.5938 -12.4659 0.612618 -13.6458 -0.047 -4.849 60.5112 4.95066 -27.1532 -28.3255 -0.9759 2.2888 -31.2305 14.4746 32.2162 -22.1583 -0.53 10.8316 0.182465 27.2532 -1.7748 -0.786 0.112 2.5817 -7.80437e-007 -1.46185e-006 3.22781e-007 -0.3601 -0.878 4.2331 -2.24229e-006 -6.81412e-007 5.78601e-007 -1.8127 -1.216 2.2227 -7.80437e-007 -1.46185e-006 3.22781e-007 -0.9571 1.114 1.7695 7.95139e-016 1.19271e-015 -0 -4.1246 0.487 4.1451 -7.80437e-007 -1.46185e-006 3.22781e-007 -3.4052 -1.454 2.7682 -2.24229e-006 -6.81412e-007 5.78601e-007 -1.4531 -1.795 1.2713 -7.80437e-007 -1.46185e-006 3.22781e-007 -5.6954 0.21 2.1184 -7.80437e-007 -1.46185e-006 3.22781e-007 -3.9766 -1.54 2.3863 -2.24229e-006 -6.81412e-007 5.78601e-007 -1.4042 -1.926 1.125 -7.80437e-007 -1.46185e-006 3.22781e-007 -2.0956 0.66 -0.3894 7.95139e-016 1.19271e-015 -0 -5.0395 -0.09 2.4971 -7.80437e-007 -1.46185e-006 3.22781e-007 -3.7921 -1.552 1.4806 -2.24229e-006 -6.81412e-007 5.78601e-007 -1.4655 -1.808 0.9609 -7.80437e-007 -1.46185e-006 3.22781e-007 -4.9141 -1.269 0.3592 -7.80437e-007 -1.46185e-006 3.22781e-007 -3.1477 -1.685 0.8462 -2.24229e-006 -6.81412e-007 5.78601e-007 -0.8055 -1.585 0.7955 -7.80437e-007 -1.46185e-006 3.22781e-007 8.367 -8.2066 0.5982 13.4129 -38.659 -8.94967 2.1923 -43.463 -0.4932 -48.0748 3.38227 43.0408 0.7333 -45.8593 -2.6451 11.8324 26.6354 2.89361 -8.367 -8.2066 0.5982 -9.43812 -39.4824 10.7433 -2.1923 -43.463 -0.4931 45.329 14.4126 -58.6569 -0.7333 -45.8593 -2.6451 -11.6249 26.5747 -2.96377 
0.00558065 -1.17942 -19.3298 -180 -89.6646 -180 0 -1.186 -1.5018 -0.0502245 5.84362 -0.116048 -6.93889e-018 9.964 0.2134 -0.0891802 11.6874 -0.228716 -1.38778e-017 13.134 -3.2573 -0.0891802 11.6873 -0.228716 -2.77556e-017 20.686 -1.6905 -8.44268 9.57996 1.36453 8.88178e-016 7.238 -0.1237 9.99907 -0.00412657 35.9978 1.7069 20.075 5.0056 -19.9811 -12.3385 -0.823634 13.6458 -0.047 -4.849 -59.7347 4.98126 27.9301 28.3255 -0.9759 2.2888 29.7273 15.2202 -32.3226 22.1583 -0.53 10.8316 0.263048 28.6095 0.756421 0.786 0.112 2.5817 4.37326e-015 -8.15017e-015 -3.18055e-015 0.3601 -0.878 4.2331 -2.26713e-006 6.31648e-007 5.34152e-007 1.8127 -1.216 2.2227 -3.97569e-016 -5.56597e-015 9.54166e-015 0.9571 1.114 1.7695 2.78299e-015 -7.15625e-015 -0 4.1246 0.487 4.1451 1.98785e-015 1.98785e-015 6.36111e-015 3.4052 -1.454 2.7682 -2.26713e-006 6.31648e-007 5.34152e-007 1.4531 -1.795 1.2713 -3.97569e-016 -1.41137e-014 3.18055e-015 5.6954 0.21 2.1184 1.98785e-015 1.98785e-015 6.36111e-015 3.9766 -1.54 2.3863 -2.26713e-006 6.31648e-007 5.34152e-007 1.4042 -1.926 1.125 -3.97569e-016 -1.41137e-014 3.18055e-015 2.0956 0.66 -0.3894 2.78299e-015 -7.15625e-015 -0 5.0395 -0.09 2.4971 1.98785e-015 1.98785e-015 6.36111e-015 3.7921 -1.552 1.4806 -2.26713e-006 6.31648e-007 5.34152e-007 1.4655 -1.808 0.9609 -3.97569e-016 -1.41137e-014 3.18055e-015 4.9141 -1.269 0.3591 1.98785e-015 1.98785e-015 6.36111e-015 3.1477 -1.685 0.8462 -2.26713e-006 6.31648e-007 5.34152e-007 0.8055 -1.585 0.7955 -3.97569e-016 -1.41137e-014 3.18055e-015 -1.7069 20.075 5.0056 19.5786 -12.2119 0.368904 -13.6458 -0.047 -4.849 60.5112 4.95064 -27.1532 -28.3255 -0.9759 2.2888 -31.2305 14.4747 32.2162 -22.1583 -0.53 10.8316 0.108476 27.3701 -1.67143 -0.786 0.112 2.5817 2.38542e-015 -4.37326e-015 6.36111e-015 -0.3601 -0.878 4.2331 2.38542e-015 -5.56597e-015 -3.18055e-015 -1.8127 -1.216 2.2227 7.95139e-016 -1.59028e-015 9.54166e-015 -0.9571 1.114 1.7695 1.59028e-015 -4.37326e-015 -6.36111e-015 -4.1246 0.487 4.1451 2.09661e-030 -7.55382e-015 1.59028e-014 -3.4052 -1.454 2.7682 5.56597e-015 -1.19271e-015 9.54166e-015 -1.4531 -1.795 1.2713 1.59028e-015 -1.19271e-015 9.54166e-015 -5.6954 0.21 2.1184 2.09661e-030 -7.55382e-015 1.59028e-014 -3.9766 -1.54 2.3863 5.56597e-015 -1.19271e-015 9.54166e-015 -1.4042 -1.926 1.125 1.59028e-015 -1.19271e-015 9.54166e-015 -2.0956 0.66 -0.3894 1.59028e-015 -4.37326e-015 -6.36111e-015 -5.0395 -0.09 2.4971 2.09661e-030 -7.55382e-015 1.59028e-014 -3.7921 -1.552 1.4806 5.56597e-015 -1.19271e-015 9.54166e-015 -1.4655 -1.808 0.9609 1.59028e-015 -1.19271e-015 9.54166e-015 -4.9141 -1.269 0.3592 2.09661e-030 -7.55382e-015 1.59028e-014 -3.1477 -1.685 0.8462 5.56597e-015 -1.19271e-015 9.54166e-015 -0.8055 -1.585 0.7955 1.59028e-015 -1.19271e-015 9.54166e-015 8.367 -8.2066 0.5982 13.4122 -38.6627 -8.94501 2.1923 -43.463 -0.4932 -48.0592 3.50666 43.0337 0.7333 -45.8593 -2.6451 11.8412 26.6354 2.89103 -8.367 -8.2066 0.5982 -9.43344 -39.4858 10.737 -2.1923 -43.463 -0.4931 45.4859 14.5715 -58.7008 -0.7333 -45.8593 -2.6451 -11.6285 26.5903 -2.96129 
0.00473471 -1.19165 -19.3296 -180 -89.5312 -180 0 -1.186 -1.5018 -0.0500198 5.79729 -0.116172 -3.46945e-018 9.964 0.2134 -0.0888414 11.5947 -0.228999 0 13.134 -3.2573 -0.0888414 11.5947 -0.228999 -2.77556e-017 20.686 -1.6905 -8.39646 9.62794 1.36051 0 7.238 -0.1237 9.99908 -0.00413117 35.9978 1.7069 20.075 5.0056 -19.9778 -12.0832 -0.574113 13.6458 -0.047 -4.849 -59.7347 4.98128 27.9301 28.3255 -0.9759 2.2888 29.7274 15.2202 -32.3226 22.1583 -0.53 10.8316 0.256616 28.5986 0.765116 0.786 0.112 2.5817 2.26624e-006 -6.31987e-007 -5.37527e-007 0.3601 -0.878 4.2331 1.63426e-006 -2.89823e-006 -6.22606e-007 1.8127 -1.216 2.2227 2.26624e-006 -6.31987e-007 -5.37527e-007 0.9571 1.114 1.7695 2.78299e-015 -1.59028e-015 -0 4.1246 0.487 4.1451 2.26624e-006 -6.31987e-007 -5.37527e-007 3.4052 -1.454 2.7682 1.63426e-006 -2.89823e-006 -6.22606e-007 1.4531 -1.795 1.2713 2.26624e-006 -6.31987e-007 -5.37527e-007 5.6954 0.21 2.1184 2.26624e-006 -6.31987e-007 -5.37527e-007 3.9766 -1.54 2.3863 1.63426e-006 -2.89823e-006 -6.22606e-007 1.4042 -1.926 1.125 2.26624e-006 -6.31987e-007 -5.37527e-007 2.0956 0.66 -0.3894 2.78299e-015 -1.59028e-015 -0 5.0395 -0.09 2.4971 2.26624e-006 -6.31987e-007 -5.37527e-007 3.7921 -1.552 1.4806 1.63426e-006 -2.89823e-006 -6.22606e-007 1.4655 -1.808 0.9609 2.26624e-006 -6.31987e-007 -5.37527e-007 4.9141 -1.269 0.3591 2.26624e-006 -6.31987e-007 -5.37527e-007 3.1477 -1.685 0.8462 1.63426e-006 -2.89823e-006 -6.22606e-007 0.8055 -1.585 0.7955 2.26624e-006 -6.31987e-007 -5.37527e-007 -1.7069 20.075 5.0056 19.5645 -11.9576 0.125392 -13.6458 -0.047 -4.849 60.5112 4.95064 -27.1532 -28.3255 -0.9759 2.2888 -31.2305 14.4746 32.2162 -22.1583 -0.53 10.8316 0.0341601 27.4868 -1.56776 -0.786 0.112 2.5817 1.46124e-006 -7.81348e-007 -2.57518e-007 -0.3601 -0.878 4.2331 -1.5627e-006 -2.92248e-006 6.43974e-007 -1.8127 -1.216 2.2227 -1.5627e-006 -2.92248e-006 6.43974e-007 -0.9571 1.114 1.7695 -1.59028e-015 7.95139e-016 3.18055e-015 -4.1246 0.487 4.1451 1.46124e-006 -7.81348e-007 -2.57518e-007 -3.4052 -1.454 2.7682 -1.5627e-006 -2.92248e-006 6.43974e-007 -1.4531 -1.795 1.2713 -1.5627e-006 -2.92248e-006 6.43974e-007 -5.6954 0.21 2.1184 1.46124e-006 -7.81348e-007 -2.57518e-007 -3.9766 -1.54 2.3863 -1.5627e-006 -2.92248e-006 6.43974e-007 -1.4042 -1.926 1.125 -1.5627e-006 -2.92248e-006 6.43974e-007 -2.0956 0.66 -0.3894 -1.59028e-015 7.95139e-016 3.18055e-015 -5.0395 -0.09 2.4971 1.46124e-006 -7.81348e-007 -2.57518e-007 -3.7921 -1.552 1.4806 -1.5627e-006 -2.92248e-006 6.43974e-007 -1.4655 -1.808 0.9609 -1.5627e-006 -2.92248e-006 6.43974e-007 -4.9141 -1.269 0.3592 1.46124e-006 -7.81348e-007 -2.57518e-007 -3.1477 -1.685 0.8462 -1.5627e-006 -2.92248e-006 6.43974e-007 -0.8055 -1.585 0.7955 -1.5627e-006 -2.92248e-006 6.43974e-007 8.367 -8.2066 0.5982 13.4115 -38.6665 -8.94036 2.1923 -43.463 -0.4932 -48.0436 3.63108 43.0267 0.7333 -45.8593 -2.6451 11.85 26.6354 2.88845 -8.367 -8.2066 0.5982 -9.42881 -39.4893 10.7307 -2.1923 -43.463 -0.4931 45.643 14.7303 -58.7451 -0.7333 -45.8593 -2.6451 -11.6321 26.606 -2.95882 
0.00390272 -1.20391 -19.3295 -180 -89.3978 -180 0 -1.186 -1.5018 -0.0498147 5.75088 -0.116295 3.46945e-018 9.964 0.2134 -0.0885023 11.5018 -0.229282 -2.77556e-017 13.134 -3.2573 -0.0885023 11.5019 -0.229282 8.32667e-017 20.686 -1.6905 -8.35013 9.67559 1.35642 1.77636e-015 7.238 -0.1237 9.99907 -0.00413877 35.9978 1.7069 20.075 5.0056 -19.9755 -11.828 -0.324812 13.6458 -0.047 -4.849 -59.7347 4.98126 27.9301 28.3255 -0.9759 2.2888 29.7273 15.2203 -32.3225 22.1583 -0.53 10.8316 0.250167 28.5876 0.773778 0.786 0.112 2.5817 3.08188e-006 -2.08113e-006 -8.53874e-007 0.3601 -0.878 4.2331 1.63305e-006 -2.89765e-006 -6.25929e-007 1.8127 -1.216 2.2227 2.26535e-006 -6.32302e-007 -5.40909e-007 0.9571 1.114 1.7695 2.86904e-031 -2.5842e-015 6.36111e-015 4.1246 0.487 4.1451 3.08188e-006 -2.08113e-006 -8.53874e-007 3.4052 -1.454 2.7682 1.63305e-006 -2.89765e-006 -6.25929e-007 1.4531 -1.795 1.2713 2.26535e-006 -6.32302e-007 -5.40909e-007 5.6954 0.21 2.1184 3.08188e-006 -2.08113e-006 -8.53874e-007 3.9766 -1.54 2.3863 1.63305e-006 -2.89765e-006 -6.25929e-007 1.4042 -1.926 1.125 2.26535e-006 -6.32302e-007 -5.40909e-007 2.0956 0.66 -0.3894 2.86904e-031 -2.5842e-015 6.36111e-015 5.0395 -0.09 2.4971 3.08188e-006 -2.08113e-006 -8.53874e-007 3.7921 -1.552 1.4806 1.63305e-006 -2.89765e-006 -6.25929e-007 1.4655 -1.808 0.9609 2.26535e-006 -6.32302e-007 -5.40909e-007 4.9141 -1.269 0.3591 3.08188e-006 -2.08113e-006 -8.53874e-007 3.1477 -1.685 0.8462 1.63305e-006 -2.89765e-006 -6.25929e-007 0.8055 -1.585 0.7955 2.26535e-006 -6.32302e-007 -5.40909e-007 -1.7069 20.075 5.0056 19.5515 -11.7034 -0.117849 -13.6458 -0.047 -4.849 60.5112 4.95065 -27.1532 -28.3255 -0.9759 2.2888 -31.2305 14.4746 32.2162 -22.1583 -0.53 10.8316 -0.0404769 27.6034 -1.46381 -0.786 0.112 2.5817 -1.46092e-006 7.81818e-007 2.58377e-007 -0.3601 -0.878 4.2331 -3.70367e-006 1.02712e-007 8.38343e-007 -1.8127 -1.216 2.2227 -1.46092e-006 7.81818e-007 2.58377e-007 -0.9571 1.114 1.7695 -3.18055e-015 -7.55382e-015 6.36111e-015 -4.1246 0.487 4.1451 -1.46092e-006 7.81818e-007 2.58377e-007 -3.4052 -1.454 2.7682 -3.70367e-006 1.02712e-007 8.38343e-007 -1.4531 -1.795 1.2713 -1.46092e-006 7.81818e-007 2.58377e-007 -5.6954 0.21 2.1184 -1.46092e-006 7.81818e-007 2.58377e-007 -3.9766 -1.54 2.3863 -3.70367e-006 1.02712e-007 8.38343e-007 -1.4042 -1.926 1.125 -1.46092e-006 7.81818e-007 2.58377e-007 -2.0956 0.66 -0.3894 -3.18055e-015 -7.55382e-015 6.36111e-015 -5.0395 -0.09 2.4971 -1.46092e-006 7.81818e-007 2.58377e-007 -3.7921 -1.552 1.4806 -3.70367e-006 1.02712e-007 8.38343e-007 -1.4655 -1.808 0.9609 -1.46092e-006 7.81818e-007 2.58377e-007 -4.9141 -1.269 0.3592 -1.46092e-006 7.81818e-007 2.58377e-007 -3.1477 -1.685 0.8462 -3.70367e-006 1.02712e-007 8.38343e-007 -0.8055 -1.585 0.7955 -1.46092e-006 7.81818e-007 2.58377e-007 8.367 -8.2066 0.5982 13.4107 -38.6702 -8.93576 2.1923 -43.463 -0.4932 -48.028 3.75548 43.0196 0.7333 -45.8593 -2.6451 11.8588 26.6354 2.88588 -8.367 -8.2066 0.5982 -9.42431 -39.4927 10.7242 -2.1923 -43.463 -0.4931 45.8005 14.8891 -58.79 -0.7333 -45.8593 -2.6451 -11.6357 26.6217 -2.95633 
